<?xml version="1.0" encoding="UTF-8"?><!DOCTYPE svg PUBLIC "-//W3C//DTD SVG 1.1//EN" "http://www.w3.org/Graphics/SVG/1.1/DTD/svg11.dtd"><svg xmlns="http://www.w3.org/2000/svg"><symbol id="icon-facebook" viewBox="0 0 10 19">
    <title>
        facebook
    </title>
    <path d="M9.766.157v2.946H8.014c-.64 0-1.071.134-1.295.402-.223.268-.335.67-.335 1.205v2.11h3.27l-.435 3.303H6.384v8.471H2.97v-8.47H.123V6.82H2.97V4.387c0-1.384.387-2.457 1.161-3.22C4.904.404 5.934.023 7.222.023c1.093 0 1.941.045 2.544.134z" fill-rule="evenodd"/>
</symbol><symbol id="icon-fb" viewBox="0 0 512 512">
    <path d="M449.446 0C483.971 0 512 28.03 512 62.554v386.892C512 483.97 483.97 512 449.446 512H342.978V319.085h66.6l12.672-82.621h-79.272v-53.617c0-22.603 11.073-44.636 46.58-44.636H425.6v-70.34s-32.71-5.582-63.982-5.582c-65.288 0-107.96 39.569-107.96 111.204v62.971h-72.573v82.621h72.573V512H62.554C28.03 512 0 483.97 0 449.446V62.554C0 28.03 28.029 0 62.554 0h386.892z"/>
</symbol><symbol id="icon-insta" viewBox="0 0 512 512">
    <style>
        .st0{fill:#25d366}.st1{fill:#fff}.st2{fill:red}.st3{fill:#3d5a98}.st4{fill:url(#SVGID_1_)}.st5{fill:url(#SVGID_2_)}.st6{fill:#55adee}.st7{fill:#1e96c8}.st8{fill:#a9c9dd}.st9{fill:#c8daea}.st10{fill:none}.st11{fill:#4787f3}.st12{fill:#dc483c}.st13{fill:#ffce43}.st14{fill:#149f5c}.st15{fill:#ce1e5b}.st16{fill:#72c5cd}.st17{fill:#dfa22f}.st18{fill:#3cb187}.st19{fill:#248c73}.st20{fill:#392538}.st21{fill:#bb242a}.st22{fill:none;stroke:#3cb187;stroke-miterlimit:10}.st23{fill:#009a57}.st24{fill:#fccd37}.st25{fill:#2771f0}
    </style>
    <linearGradient gradientUnits="userSpaceOnUse" id="SVGID_1_" x1="407.132" x2="104.868" y1="4.473" y2="507.527">
        <stop offset="0" stop-color="#4845a2"/>
        <stop offset=".045" stop-color="#5945a2"/>
        <stop offset=".171" stop-color="#8444a1"/>
        <stop offset=".27" stop-color="#9e44a1"/>
        <stop offset=".328" stop-color="#a844a1"/>
        <stop offset=".391" stop-color="#ab429a"/>
        <stop offset=".479" stop-color="#b43c88"/>
        <stop offset=".49" stop-color="#b53b85"/>
        <stop offset=".558" stop-color="#be3572"/>
        <stop offset=".676" stop-color="#d22749"/>
        <stop offset=".739" stop-color="#df4f3e"/>
        <stop offset=".856" stop-color="#f9a326"/>
        <stop offset="1" stop-color="#f9dd26"/>
    </linearGradient>
    <path class="st4" d="M391.5 13h-271C61.1 13 13 61.1 13 120.5v270.9C13 450.9 61.1 499 120.5 499h270.9c59.4 0 107.5-48.1 107.5-107.5v-271C499 61.1 450.9 13 391.5 13z"/>
    <circle class="st1" cx="352.4" cy="160" r="21.2"/>
    <path class="st1" d="M333.8 76H178.2C121.8 76 76 121.8 76 178.2v155.6C76 390.2 121.8 436 178.2 436h155.6c56.4 0 102.2-45.9 102.2-102.2V178.2C436 121.8 390.2 76 333.8 76zm69.7 257.8c0 38.4-31.3 69.7-69.7 69.7H178.2c-38.4 0-69.7-31.3-69.7-69.7V178.2c0-38.4 31.3-69.7 69.7-69.7h155.6c38.4 0 69.7 31.3 69.7 69.7v155.6z"/>
    <path class="st1" d="M256 162.3c-51.7 0-93.7 42-93.7 93.7s42 93.7 93.7 93.7 93.7-42 93.7-93.7-42-93.7-93.7-93.7zm0 154.9c-33.7 0-61.2-27.5-61.2-61.2s27.5-61.2 61.2-61.2 61.2 27.5 61.2 61.2-27.5 61.2-61.2 61.2z"/>
</symbol><symbol id="icon-pint" viewBox="0 0 512 512">
    <rect height="512" rx="64" ry="64" width="512"/>
    <path d="M265.381 56c-109.16 0-164.202 78.261-164.202 143.538 0 39.512 14.952 74.666 47.038 87.752 5.264 2.174 9.981.08 11.511-5.742 1.06-4.02 3.57-14.188 4.693-18.44 1.53-5.76.931-7.768-3.312-12.804-9.251-10.907-15.177-25.03-15.177-45.055 0-58.055 43.448-110.04 113.123-110.04 61.704 0 95.603 37.703 95.603 88.037 0 66.256-29.324 122.17-72.838 122.17-24.039 0-42.019-19.868-36.267-44.255 6.904-29.108 20.284-60.513 20.284-81.54 0-18.8-10.109-34.484-30.986-34.484-24.57 0-44.31 25.42-44.31 59.467 0 21.685 7.33 36.36 7.33 36.36s-25.15 106.539-29.556 125.198c-8.775 37.162-1.323 82.703-.685 87.29.37 2.74 3.88 3.402 5.468 1.338 2.253-2.957 31.537-39.085 41.468-75.195 2.823-10.216 16.162-63.149 16.162-63.149 7.991 15.24 31.318 28.627 56.128 28.627 73.852 0 123.965-67.326 123.965-157.448C410.834 119.47 353.102 56 265.381 56z"/>
</symbol></svg>